<?xml version="1.0" standalone="no"?>
<!DOCTYPE svg PUBLIC "-//W3C//DTD SVG 20010904//EN"
 "http://www.w3.org/TR/2001/REC-SVG-20010904/DTD/svg10.dtd">
<svg version="1.0" xmlns="http://www.w3.org/2000/svg"
 width="920.000000pt" height="510.000000pt" viewBox="0 0 920.000000 510.000000"
 preserveAspectRatio="xMidYMid meet">

<g transform="translate(0.000000,510.000000) scale(0.100000,-0.100000)"
fill="#000000" stroke="none">
<path d="M3389 4705 c-3 -2 -34 -7 -69 -10 -85 -9 -105 -12 -105 -15 0 -1 -9
-4 -20 -6 -25 -4 -59 -12 -62 -14 -2 -2 -7 -4 -13 -5 -5 -1 -12 -4 -15 -5 -3
-1 -9 -4 -15 -5 -5 -1 -11 -3 -12 -4 -2 -2 -14 -5 -28 -7 -13 -2 -28 -10 -32
-17 -4 -6 -8 -8 -8 -4 0 5 -7 1 -16 -7 -8 -9 -20 -14 -25 -11 -5 4 -9 1 -9 -5
0 -6 -4 -8 -10 -5 -5 3 -10 1 -10 -4 0 -6 -7 -11 -15 -11 -8 0 -15 -4 -15 -10
0 -5 -7 -10 -15 -10 -8 0 -15 -4 -15 -10 0 -5 -5 -10 -11 -10 -7 0 -18 -8 -26
-17 -8 -10 -11 -11 -7 -3 5 8 -30 -23 -76 -70 -46 -47 -84 -88 -84 -91 -1 -3
-9 -13 -18 -22 -9 -10 -20 -26 -23 -37 -3 -11 -11 -20 -16 -20 -5 0 -9 -7 -9
-15 0 -8 -5 -15 -11 -15 -5 0 -8 -4 -4 -9 3 -5 -1 -16 -9 -24 -8 -8 -12 -17
-9 -21 4 -3 1 -6 -6 -6 -7 0 -9 -4 -6 -10 3 -5 1 -10 -5 -10 -6 0 -9 -4 -5 -9
3 -5 1 -12 -5 -16 -6 -4 -8 -10 -5 -15 3 -5 1 -11 -5 -15 -5 -3 -10 -16 -10
-29 0 -12 -3 -26 -7 -30 -5 -4 -9 -12 -9 -17 -1 -5 -2 -10 -4 -11 -2 -4 -8
-33 -15 -83 -3 -22 -9 -51 -13 -65 -11 -43 -12 -2549 -1 -2600 6 -25 13 -56
15 -70 8 -42 22 -105 24 -105 2 0 11 -38 12 -52 1 -7 5 -13 10 -13 5 0 7 -4 3
-9 -3 -5 -1 -12 5 -16 6 -4 8 -11 5 -16 -4 -5 -2 -9 3 -9 10 0 42 -64 42 -86
0 -8 7 -17 15 -20 8 -4 12 -10 9 -15 -3 -5 0 -9 6 -9 6 0 9 -4 6 -9 -4 -5 6
-19 21 -31 16 -12 21 -18 13 -14 -8 4 26 -33 75 -82 50 -49 93 -88 98 -86 4 2
7 -2 7 -7 0 -6 7 -11 15 -11 9 0 18 -7 21 -15 4 -8 10 -13 14 -10 4 3 11 -2
14 -11 3 -8 10 -12 16 -9 5 3 10 1 10 -5 0 -6 5 -8 10 -5 6 3 10 1 10 -5 0 -6
5 -8 10 -5 6 3 10 1 10 -5 0 -6 5 -8 10 -5 6 3 10 1 10 -5 0 -6 4 -8 10 -5 6
3 10 1 10 -5 0 -6 4 -9 8 -6 5 3 20 -1 35 -9 15 -8 27 -11 27 -8 0 3 7 0 15
-7 8 -7 15 -9 15 -5 0 4 7 2 15 -5 8 -7 15 -9 15 -5 0 4 7 2 15 -5 8 -6 19 -9
25 -5 6 4 16 2 23 -3 7 -5 19 -9 27 -9 8 -1 42 -5 75 -9 73 -11 2507 -11 2585
0 30 4 64 7 75 7 10 0 24 4 30 9 5 4 28 12 50 16 51 10 54 11 60 14 3 1 10 4
15 5 6 1 12 4 15 5 3 1 10 4 15 5 6 1 13 4 18 5 4 1 10 2 15 1 4 0 7 4 7 10 0
5 5 7 10 4 6 -3 10 -1 10 5 0 6 5 8 10 5 6 -3 10 -1 10 5 0 6 5 8 10 5 6 -3
10 -1 10 5 0 6 4 9 10 5 5 -3 18 3 29 14 11 11 22 17 25 14 3 -3 8 2 12 11 3
9 10 14 15 11 4 -3 13 4 19 15 6 11 17 20 26 20 8 0 17 7 20 15 4 8 11 12 17
8 5 -3 7 -1 4 4 -4 6 17 33 46 60 29 26 54 51 55 56 1 4 14 19 29 33 16 14 21
23 13 19 -8 -4 -6 1 4 9 11 9 16 16 10 16 -5 0 -1 5 9 11 9 6 15 14 12 20 -4
5 -1 9 5 9 6 0 8 4 5 10 -3 5 -1 10 5 10 6 0 8 4 5 10 -3 5 -1 10 5 10 6 0 8
5 5 10 -3 6 -1 10 5 10 6 0 9 4 6 9 -4 5 -1 11 4 13 6 2 12 13 13 26 0 12 5
22 10 22 5 0 7 6 4 12 -2 7 0 24 6 38 11 27 16 46 21 70 1 8 5 22 8 30 4 8 6
22 6 30 0 8 4 31 8 50 11 48 11 2508 0 2595 -11 90 -12 97 -20 117 -4 9 -5 21
-2 27 4 5 2 12 -4 16 -6 4 -8 10 -5 15 3 5 1 11 -5 15 -5 3 -10 17 -10 30 0
13 -5 27 -10 30 -6 4 -8 10 -5 15 3 5 1 11 -5 15 -6 4 -8 11 -5 16 4 5 2 9 -4
9 -10 0 -27 38 -23 53 1 4 -3 7 -9 7 -5 0 -8 4 -4 10 3 5 -3 18 -15 30 -11 11
-17 20 -14 20 3 0 -1 7 -8 15 -31 34 -43 50 -43 56 0 4 -18 24 -41 45 -22 22
-31 32 -20 24 21 -15 21 -15 2 7 -10 12 -22 21 -27 20 -5 -1 -25 16 -45 38
-19 22 -33 33 -29 25 4 -10 2 -9 -8 3 -8 9 -19 17 -26 17 -6 0 -14 7 -17 15
-4 8 -10 12 -15 9 -5 -3 -9 0 -9 5 0 6 -7 11 -15 11 -8 0 -15 5 -15 11 0 5 -4
7 -10 4 -5 -3 -10 -1 -10 5 0 6 -4 8 -10 5 -5 -3 -10 -1 -10 5 0 6 -4 8 -10 5
-5 -3 -10 -1 -10 5 0 6 -4 8 -10 5 -5 -3 -10 -1 -10 5 0 6 -4 9 -8 6 -5 -3
-22 2 -38 10 -16 9 -30 15 -31 15 -2 -1 -5 0 -8 0 -11 3 -21 5 -60 13 -22 4
-44 11 -50 14 -10 6 -63 14 -102 15 -13 1 -23 4 -23 8 0 8 -2483 12 -2491 4z
m1812 -825 c294 -99 401 -445 215 -698 -50 -68 -135 -128 -215 -152 -46 -14
-104 -18 -320 -19 -146 -1 -267 -4 -270 -6 -3 -2 -5 199 -3 446 l2 449 266 0
c240 0 270 -2 325 -20z m-26 -892 c105 -27 227 -123 278 -216 150 -275 -15
-610 -325 -663 -237 -39 -472 133 -509 374 -50 318 246 587 556 505z m-1145
-17 c-30 -9 -66 -23 -80 -30 -16 -9 -21 -9 -14 -2 14 16 104 50 129 50 11 0
-5 -8 -35 -18z m577 -243 c-1 -51 -3 -12 -3 87 0 99 2 141 3 93 2 -48 2 -129
0 -180z m-744 145 c-33 -32 -67 -69 -77 -83 -14 -22 -14 -20 1 9 16 29 116
131 130 131 2 0 -22 -26 -54 -57z m-122 -184 c-5 -13 -10 -19 -10 -12 -1 15
10 45 15 40 3 -2 0 -15 -5 -28z m-14 -61 c-3 -7 -5 -2 -5 12 0 14 2 19 5 13 2
-7 2 -19 0 -25z m-10 -95 c-2 -16 -4 -5 -4 22 0 28 2 40 4 28 2 -13 2 -35 0
-50z m10 -75 c-3 -7 -5 -2 -5 12 0 14 2 19 5 13 2 -7 2 -19 0 -25z m873 -894
c-48 -232 -278 -394 -506 -356 -267 44 -436 299 -369 557 22 84 60 147 125
209 116 111 175 126 502 126 l248 0 2 188 c2 103 4 -6 6 -243 1 -272 -2 -449
-8 -481z m-825 775 c10 -18 43 -61 74 -94 l55 -60 -57 55 c-56 53 -118 154
-116 189 0 9 6 0 14 -20 7 -20 21 -51 30 -70z m175 -175 c0 -2 -9 0 -20 6 -11
6 -20 13 -20 16 0 2 9 0 20 -6 11 -6 20 -13 20 -16z m60 -24 c8 -5 11 -10 5
-10 -5 0 -17 5 -25 10 -8 5 -10 10 -5 10 6 0 17 -5 25 -10z m47 -16 c-3 -3
-12 -4 -19 -1 -8 3 -5 6 6 6 11 1 17 -2 13 -5z m56 -11 c-7 -2 -21 -2 -30 0
-10 3 -4 5 12 5 17 0 24 -2 18 -5z"/>
<path d="M2710 737 c0 -2 15 -16 33 -33 l32 -29 -29 33 c-28 30 -36 37 -36 29z"/>
</g>
</svg>
